/* XPM */
static char *door_clean[] = {
/* columns rows colors chars-per-pixel */
"43 64 94 2 ",
"   c #201F26",
".  c #211F28",
"X  c #232127",
"o  c #2C2224",
"O  c #212029",
"+  c #2C2629",
"@  c #2C292D",
"#  c #332624",
"$  c #362824",
"%  c #3B2A23",
"&  c #332B2B",
"*  c #3B2F2C",
"=  c #3B312F",
"-  c #2E3133",
";  c #3D3332",
":  c #333438",
">  c #37393D",
",  c #402F27",
"<  c #402F28",
"1  c #413127",
"2  c #44332B",
"3  c #49362D",
"4  c #4C392F",
"5  c #423532",
"6  c #453934",
"7  c #4D3B32",
"8  c #4D3E39",
"9  c #533E33",
"0  c #574135",
"q  c #594336",
"w  c #574439",
"e  c #5D4638",
"r  c #5D483A",
"t  c #624A3B",
"y  c #694F3F",
"u  c #6A503F",
"i  c #3F4143",
"p  c #424546",
"a  c #444748",
"s  c #454C4C",
"d  c #494D4E",
"f  c #4B504F",
"g  c #4E5554",
"h  c #545656",
"j  c #585453",
"k  c #515857",
"l  c #545A59",
"z  c #5B5C5B",
"x  c #644D40",
"c  c #694F40",
"v  c #6C5140",
"b  c #705544",
"n  c #755947",
"m  c #775A48",
"M  c #7B5D4B",
"N  c #615E5D",
"B  c #5A605F",
"V  c #5C6261",
"C  c #626664",
"Z  c #636A67",
"A  c #6E6964",
"S  c #666D6A",
"D  c #6A6B6A",
"F  c #736F6B",
"G  c #6B716E",
"H  c #74726F",
"J  c #6F7572",
"K  c #747372",
"L  c #797774",
"P  c #7B7A77",
"I  c #7C7C7A",
"U  c #82817E",
"Y  c #858584",
"T  c #898985",
"R  c #8A8A88",
"E  c #908C88",
"W  c #92918D",
"Q  c #969592",
"!  c #999692",
"~  c #9C9893",
"^  c #9D9E9A",
"/  c #A2A29E",
"(  c #A3A3A0",
")  c #A8A7A2",
"_  c #ADAAA4",
"`  c #B3AEA6",
"'  c #B4AFA8",
"]  c #B6B1AA",
"[  c #B9B4AD",
"{  c #BDB7B0",
"}  c #BFB9B2",
"|  c #C0BAB3",
" . c #C7C1B8",
".. c #CDC6BD",
/* pixels */
"h z K K Y Y E W ~ ~ ~ ~ ~ ~ ~ ~ ~ ~ ~ ~ ~ ~ ~ ~ ~ ~ ~ ~ ~ E ~ ~ E T U U Y U U L K z j ",
"h N T R / ) ] | ........................................| { ....] ` ( ( ( ( ( R T z j ",
"U Y / / ' ] ] ] [ [ [ | | | | | | | | | | | [ ` ............{ { ] ] ] ] ] ' [ ( ^ Y Y ",
"Y T / ) ` ` ' ` ` ` ` ] [ [ [ [ [ [ ] [ [ [ ' _  .| ..| | | ' ' ' ' ' ] ' ` ` ) / Y Y ",
"s h / ! A H T T T T T Y T R T T T T T T T Y T T R T T T T T T T T T T T T L A ! ( k s ",
"g z Q T j z D D D D D D A A D D D D D D D D D D D A D D D D D D D D D D D N j Y Q g s ",
"S S F N O O O . . . . . . . . . . . . . . . X . . . . .     . . . . . . . . . N K g s ",
"S G P A O + 5 ; * = * = = 5 5 8 8 8 8 6 6 6 4 4 6 6 5 = 8 8 8 8 8 6 = = 5 @ . K R V l ",
"S J T K O & t e 9 9 9 9 9 t t M M M n u u u u u y y e 9 n M M M M c 9 9 r = . Y ( K S ",
"k z T K X = y 0 < < < < 3 3 2 9 4 9 9 4 3 4 3 3 4 4 < 1 4 7 9 9 9 4 3 9 e = . T ( J S ",
"s g T K X ; v 0 % % % % % % % % % % % % % % % % % % % % % % % % % % % 4 e = . T ( J S ",
"Z S ^ T   ; v 7 . * 3 4 4 % % 3 2 % , 4 9 t 9 2 , % 2 2 % % 2 2 2 < , 9 x 5 . K R l f ",
"S J ( R X ; y 7   * 3 9 9 , % 3 2 % , 9 q t q 3 % % 2 2 % % 3 3 3 < , 9 u 5 . H T g s ",
"S J ( R . = b 0 & 3 9 9 9 4 3 9 9 3 3 9 q t t t 4 4 9 9 3 3 9 9 3 2 , 9 u 5 . H T g d ",
"S J ( R X ; v w & 3 9 9 9 3 3 9 9 3 4 9 q e t t 9 4 9 9 3 3 9 9 3 2 % 9 b 5   K R l g ",
"S J ( R . 5 M t & 6 9 t t 4 3 9 9 3 4 t e 9 0 t t t 9 9 3 2 9 9 3 < % t M 7 . Y ( J S ",
"S J ( R X ; n e % 3 9 e t 4 3 9 9 3 4 t e 0 0 q e t 0 9 2 2 9 9 3 < $ t M 8 . Y ( J S ",
"S J ( T X = v 0 % 3 9 e t 3 3 9 9 3 4 t t t q 4 e t 0 9 % % 9 9 3 < $ t M 8 X Y ( J S ",
"l C Q Y X = v 0 % 3 9 9 e 3 3 0 0 3 7 e e t e 4 0 e 9 9 1 < 9 9 3 2 % e b 5 X T ( J S ",
"s g T K X = u 0 % 4 9 9 9 3 3 t r 3 3 9 0 t r 9 9 9 9 9 3 3 9 9 3 2 % q u 5 X Y ( J S ",
"d g T K O ; n e % 4 t 9 4 < , t e 3 4 e t t e e 9 4 9 9 3 3 9 9 3 2 % 9 u 3 X P Q B g ",
"s g T K O ; M t % 9 t 4 3 % % t e 3 4 t t t t t 7 3 9 9 3 2 9 9 3 < , 9 u 5 X K T g s ",
"C G ^ T . ; M t % 4 9 9 e 3 < t e 4 4 t t e t t r e 9 9 3 3 9 9 * # # 9 u 5   K R g s ",
"S J ( R . ; M t % 4 9 e t 4 3 t e 2 4 t t t t t t t 0 9 3 3 9 7 & # o 9 u 5   K T g s ",
"S J ( Y . ; M t $ 3 9 e t 3 3 t r 3 4 0 q t r t t r 0 0 3 2 9 9 3 2 % 0 u 6 . T ( J S ",
"S J ( R . ; M t % 3 9 9 t 4 3 t e 2 2 0 q t t t t t 0 0 3 3 9 9 3 < % 0 u 3 . Y ( J S ",
"S J ( R . 5 M t % 4 9 9 9 4 3 t r % 1 t t t t r t t 0 9 3 3 3 3 3 2 % 0 b 5 . Y ( J S ",
"S J ( R . = n t % 4 9 e 9 2 < t e % 2 t t t r e e t 0 9 2 1 7 3 3 < % 0 b 3 . Y ( J S ",
"S J ( R . = y 0 % 3 9 t t , , t r 3 4 t t t e 9 e t 0 9 % % 9 9 4 < $ t M 6   Y ( J S ",
"S J ( R . : b 0 $ 3 4 9 9 , , 9 0 3 4 q 0 0 0 0 q q 9 4 $ # 4 6 < < $ t M 8 . Y ( J S ",
"S J ( Y . = c 9 % < 3 4 9 , % 9 0 4 4 0 4 4 4 0 0 0 4 6 o o 3 3 % $ % t M 6 . Y ( J S ",
"l V Q I . ; m c 9 t b b b c c b u u u b v v v b v b v v x x v v 9 9 2 c M 6 . L E J S ",
"k l T K . 5 M n t b M M M M M M M M M M M M M M M M M M M M M m t 0 4 y M 6 . K T G S ",
"g z T K . * v t 9 y u u b u u y u u u u u u u u e 0 y v c b @ @ + + X 8 v 5 . H T G S ",
"g z T K X ; c t 9 t u u y y y y u u u u u u u u q 9 y c x x @ O . O . 8 c 5 . K R S S ",
"k l T L X * c t 9 t u u y e e 9 r u u u u u y y v v v v O . i a a > . 8 c 5 . Y ( k s ",
"g B R I X = v t 9 t y u u t t e e u u u y y y y c x w w @ O i a i > . 7 v 5 . Y ( k s ",
"g V ( R X ; v t 9 t u u u u y y u u u u t e r y c 6 - : - - a a - @ . 8 v 6 . Y ( k s ",
"g V ( R o * u t 3 4 9 9 9 9 9 9 0 0 0 0 0 3 0 0 0 ; - @ @ @ : : - @ . 8 c 5 . Y ( k s ",
"g V ( R . < u 9 % % % , % % % % $ % % % $ $ $ $ $ - - O . . . X - @ . 8 v 5 . Y ( k s ",
"g V ( R . ; r 0 % < < 2 4 % % < % $ % 1 1 1 1 # % 5 5 * # # . . O O O w v 5 . Y ( k s ",
"g V ( R O & r 4 % < 3 9 9 % $ 3 1 o $ 2 3 3 1 o < 3 3 3 % $ . . O O . 8 c 5 . Y ( k s ",
"g V / R X = u 0 % 3 9 9 9 3 3 9 0 1 3 9 9 9 4 < 4 9 4 3 % % < 5 2 * + 0 v 5 . Y ( S C ",
"g V / T X = u 0 % 3 9 9 9 4 3 9 9 2 3 0 9 9 9 2 9 9 4 4 % % 3 3 3 1 % 0 v 5 . Y ( J S ",
"g B T L X = u 9 o 2 9 e t 3 3 4 6 3 4 9 9 t e 9 9 9 9 9 3 3 9 9 3 1 % 4 e = . J R J S ",
"g z T K X = u 0 o 1 9 e t 4 3 4 4 3 3 9 0 t e 0 9 9 9 9 3 2 9 9 3 = $ 4 e = . H T S S ",
"g l T K X = u 0 % 3 0 e t 4 2 t t 3 4 9 0 t t t 7 3 9 9 2 3 9 9 & + X 8 u 5 X H T G S ",
"g B T K X = u 0 % 2 9 q e 4 3 t e 3 3 0 0 t t t 9 9 9 9 3 2 9 9 = $ o 0 u 5 . J T J S ",
"g B T K X = u 0 % 1 4 0 r 4 3 r t 3 3 9 9 t t t t t 9 9 3 2 9 9 3 < % 0 c 5 . K T J S ",
"g l T K X = u 0 % 3 4 q t 4 3 e 9 3 4 9 9 t t t t t 9 9 3 2 9 9 3 2 % 0 v 5 . I Q C l ",
"g l T K X = u 0 % 2 0 q e 4 3 0 9 3 4 9 t t t t t t e 9 3 3 9 9 3 2 % 9 v 5 O Y ( k s ",
"g B ~ Y X * t 4 % 4 0 0 q 4 1 0 9 4 4 9 9 9 9 t t t 9 9 3 3 9 9 3 < % w c 5 O Y ( k s ",
"g V / R O = r 0 % 3 9 9 0 4 3 0 9 3 3 9 4 3 9 t t t e 9 3 3 9 9 3 2 % 9 c 5 . Y ( k s ",
"g V / R O & e 0 % 3 9 7 4 % % 9 7 3 3 9 9 9 9 9 t t 9 9 3 2 9 9 3 < % e v 5 . Y ( k s ",
"g V / R X = r 4 % 3 9 4 3 % % 0 9 3 4 9 9 9 9 9 e t e 9 3 3 9 9 4 < $ 9 v 5 . Y ( l s ",
"s k / R X = u 0 % 2 3 7 0 3 3 9 9 3 3 4 4 9 9 3 4 9 9 9 % % 3 3 3 < % e v 5 . Y ( k s ",
"s k ( T . ; c e % 1 3 9 9 3 2 9 4 3 3 3 4 9 4 3 4 9 9 9 % % 3 3 2 < % 0 y 2   Y ( k s ",
"s k ( T . < v 9 % 1 3 3 2 % % 3 3 % % 3 3 3 2 , < 3 3 3 % $ 3 3 < , % 4 t * O Y ( k s ",
"f l ^ Y o = x 9 2 9 0 0 0 9 7 0 9 9 9 9 9 9 9 9 9 e 9 e 9 4 9 q 4 2 , 9 q = O I ~ k s ",
"z N T K . & 9 9 9 c M M M M M M M M M M M M M M M M M M M M M n t q 3 9 e ; O K T g s ",
"z N R K . $ 9 9 4 t x x y x y x c t t t t c c t t x t t t t y y 9 7 3 9 9 & O K T g s ",
"j z T K . * 9 9 3 4 9 9 9 9 9 9 9 3 3 3 4 9 9 3 3 3 3 3 3 3 9 9 3 3 3 4 3 & O G T g s ",
"j z Z z . o & # + & & & & & & $ & + + # + + $ + + + + + + + & & o + + + + X O h C f s ",
"z z h d . . . . . . . . . . . . . . . . . . . . . . . . X O   X X X X X X O O s l d s "
};
