/* XPM */
static char * texture_NO_xpm[] = {
"64 64 72 1",
" 	c #969492",
".	c #9A9896",
"+	c #9D9B9A",
"@	c #A09E9D",
"#	c #A09E9C",
"$	c #9A9795",
"%	c #969391",
"&	c #A09D9A",
"*	c #A2A09D",
"=	c #9D9B98",
"-	c #A2A09B",
";	c #A7A4A0",
">	c #A5A29D",
",	c #A09D98",
"'	c #9D9A93",
")	c #9D9A94",
"!	c #96938D",
"~	c #B5B1AA",
"{	c #BAB6B0",
"]	c #BCB8B2",
"^	c #BEBAB4",
"/	c #B7B3AB",
"(	c #B9B5AD",
"_	c #B4B0A8",
":	c #BCB8B1",
"<	c #BAB6AF",
"[	c #B8B4AD",
"}	c #B7B4AE",
"|	c #BFBBB6",
"1	c #BBB7B2",
"2	c #C0BCB6",
"3	c #C5C1BB",
"4	c #C3BFB9",
"5	c #C1BDB7",
"6	c #C1BDB6",
"7	c #C2BEB7",
"8	c #C6C2BC",
"9	c #C2BEB8",
"0	c #C4C0BA",
"a	c #C7C3BD",
"b	c #5B6060",
"c	c #939699",
"d	c #727777",
"e	c #505454",
"f	c #4C3D40",
"g	c #231D1F",
"h	c #3F3238",
"i	c #332B2D",
"j	c #5D4C50",
"k	c #564549",
"l	c #463A3D",
"m	c #3D3236",
"n	c #3F363A",
"o	c #3A3033",
"p	c #867E77",
"q	c #140A0F",
"r	c #706961",
"s	c #5A5550",
"t	c #272225",
"u	c #342E34",
"v	c #F6CA9F",
"w	c #514952",
"x	c #433F45",
"y	c #BF6F4A",
"z	c #EDAB50",
"A	c #4A4A5A",
"B	c #65657A",
"C	c #565668",
"D	c #453F42",
"E	c #51494E",
"F	c #A0A2A5",
"G	c #7D8282",
"  .+@##$%%%%%%%&&&&**=--;>,,-')!  .+@##$%%%%%%%&&&&**=--;>,,-')!",
"~{{{~~{{{]]]]^/(_//:<<~[[[<__}|1~{{{~~{{{]]]]^/(_//:<<~[[[<__}|1",
"22{{{{]3334567338883499{9999{{{{22{{{{]3334567338883499{9999{{{{",
"22208888333aaa34499900800222aaa222208888333aaa34499900800222aaa2",
"2233333aaaaaaaaaaaaaaaaaaaa222222233333aaaaaaaaaaaaaaaaaaaa22222",
"aaaaaaaaaaaaaaaaaaaaaaaaaaaaaaaaaaaaaaaaaaaaaaaaaaaaaaaaaaaaaaaa",
"aaaaaaaaaaaaaaaaaaaaaaaaaaaaaaaaaaaaaaaaaaaaaaaaaaaaaaaaaaaaaaaa",
"bbcddefghhhhhhhghhhfhhfghhhhhhhghhhfhhfghhhhhhhghhhfhhfghheddcbb",
"cdbcdegiggggggggggggiigiggggggggggggiigiggggggggggggiigiggedcbdc",
"cdbcdegggggghhhhhhhggggggggghhhhhhhggggggggghhhhhhhgggggggedcbdc",
"cdbbeehjfhhghhhhhhhgikhjfhhghhhhhhhgikhjfhhghhhhhhhgikhjfheebbdc",
"cdbdehflhhhimhhfhhhiihflhhhimhhfhhhiihflhhhimhhfhhhiihflhhhedbdc",
"ebcdegniggigiigigiggggniggigiigigiggggniggigiigigiggggniggiedcbe",
"cdbdehhghmhfhhhihhhffhhghmhfhhhihhhffhhghmhfhhhihhhffhhghmhedbdc",
"cdbdehmghmhomfhghhhhfhmghmhomfhghhhhfhmghmhomfhghhhhfhmghmhedbdc",
"cdeeeffgmfmhkhhnffhfhffgmfmhkhhnffhfhffgmfmhkhhnffhfhffgmfmeeedc",
"ccbcdeiggggggiggggggggiggggggiggggggggiggggggiggggggggigggedcbcc",
"ebbcdehpppppppppppppppppqffghghhhhhgfhhpppppppppppppppppqfedcbbe",
"cdbcdehpppppppppppppppppqhhghghhhfhgjhhpppppppppppppppppqhedcbdc",
"cdbcdehhrprrrrrrrrrrrprqhhhghghhhkhgfhhhrprrrrrrrrrrrprqhhedcbdc",
"cdbdsssssstuuuuuuuuutssssssqgiggggggsssssstuuuuuuuuutssssssqdbdc",
"ebddsvvvvstwwxxxxxwwtsvvvvsqhhhghhffsvvvvstwwxxxxxwwtsvvvvsqddbe",
"cdbdsyyyystwtttttttwtsyyyysqhhhghfhhsyyyystwtttttttwtsyyyysqdbdc",
"cdbbszzzzstxtABtABtxtszzzzsqhhhghhhfszzzzstxtABtABtxtszzzzsqbbdc",
"cdbcsyyyystxtCCtCCtxtsyyyysqggggggggsyyyystxtCCtCCtxtsyyyysqcbdc",
"cdecszzzzstxtCCtCCtxtszzzzsqhhhhhhhgszzzzstxtCCtCCtxtszzzzsqcedc",
"bbccsyyyystxtBCtBCtxtsyyyysqhhhhhhhgsyyyystxtBCtBCtxtsyyyysqccbb",
"cdbdszzzzstxtCCtCCtwtszzzzsqmhhfhhhiszzzzstxtCCtCCtwtszzzzsqdbdc",
"cdbbsyyyystxxtttttxwtsyyyysqiigigiggsyyyystxxtttttxwtsyyyysqbbdc",
"cdbdszzzzstxtABtABtwtszzzzsqhhhihhhfszzzzstxtABtABtwtszzzzsqdbdc",
"cdbcsyyyystwtCCtCCtwtsyyyysqmfhghhhhsyyyystwtCCtCCtwtsyyyysqcbdc",
"eebcszzzzstwtBCtBCtwtszzzzsqkhhnffhfszzzzstwtBCtBCtwtszzzzsqcbee",
"cbccsyyyystwtBCtBCtwtsyyyysqgiggggggsyyyystwtBCtBCtwtsyyyysqccbc",
"cdbcszzzzstwtCCtCCtxtszzzzsqhghhhhhgszzzzstwtCCtCCtxtszzzzsqcbdc",
"ccbdsyyyystwxtttttxxtsyyyysqhghhhfhgsyyyystwxtttttxxtsyyyysqdbcc",
"ccbbszzzzstwtABtABtxtszzzzsqhghhhkhgszzzzstwtABtABtxtszzzzsqbbcc",
"cdbcsyyyystxtBCtBCtxtsyyyysqgiggggggsyyyystxtBCtBCtxtsyyyysqcbdc",
"cdbcszzzzstxtBCtBCtxtszzzzsqhhhghhffszzzzstxtBCtBCtxtszzzzsqcbdc",
"cbbcsyyyystxtCCtCCtxtsyyyysqhhhghfhhsyyyystxtCCtCCtxtsyyyysqcbbc",
"bbcdszzzzstxtttttttwtszzzzsqhhhghhhfszzzzstxtttttttwtszzzzsqdcbb",
"cdbcsDDDDstwxxxxxxwwtsDDDDsqggggggggsDDDDstwxxxxxxwwtsDDDDsqcbdc",
"cdbcdeggggttttttttttttqggggghhhhhhhgggggggttttttttttttqgggedcbdc",
"cdbbeehjrEEEEEEEEEEEEErqfhhghhhhhhhgikhjrEEEEEEEEEEEEErqfheebbdc",
"cdbdehfssrrsssrrrrssrrssqhhimhhfhhhiihfssrrsssrrrrssrrssqhhedbdc",
"ebcdegnirrrrrrrrrrrrrrrrqgigiigigiggggnirrrrrrrrrrrrrrrrqgiedcbe",
"cdbdehhghmhfhhhihhhffhhghmhfhhhihhhffhhghmhfhhhihhhffhhghmhedbdc",
"cdbdehmghmhomfhghhhhfhmghmhomfhghhhhfhmghmhomfhghhhhfhmghmhedbdc",
"cdeeeffgmfmhkhhnffhfhffgmfmhkhhnffhfhffgmfmhkhhnffhfhffgmfmeeedc",
"ccbcdeiggggggiggggggggiggggggiggggggggiggggggiggggggggigggedcbcc",
"ebbcdehhhffghghhhhhgfhhhhffghghhhhhgfhhhhffghghhhhhgfhhhhfedcbbe",
"cdbcdehhfhhghghhhfhgjhhhfhhghghhhfhgjhhhfhhghghhhfhgjhhhfhedcbdc",
"cdbcdehhhhhghghhhkhgfhhhhhhghghhhkhgfhhhhhhghghhhkhgfhhhhhedcbdc",
"cdbddeingggggiggggggggingggggiggggggggingggggigggggggginggeddbdc",
"eeeeeebbbbbbebbbbbbeeeeeeeeeeeeeeeeeeebbbbbbebbbbbbeeeeeeeeeeeee",
"eFFFFFFFFeFFFFFFFFFFFFFeFFFFFFFeeFFFFFFFFeFFFFFFFFFFFFFeFFFFFFFe",
"eFFcccccceFFccccccccccFeFcccccFeeFFcccccceFFccccccccccFeFcccccFe",
"bFccccccceFcccccccccccceGcccccGebFccccccceFcccccccccccceGcccccGe",
"bGccccccGeFcccccccccccceGcccccGebGccccccGeFcccccccccccceGcccccGe",
"eGccccccGeGccccccccccccbGGcccGGeeGccccccGeGccccccccccccbGGcccGGe",
"eGGccccGGeGGGGccccccccGbGGGGGGGeeGGccccGGeGGGGccccccccGbGGGGGGGe",
"bdGGccGGdbddGGGGGGGGGGGbdGGGGGdebdGGccGGdbddGGGGGGGGGGGbdGGGGGde",
"bddGGGGddbdddGGGGGGGGGdbddGGGddebddGGGGddbdddGGGGGGGGGdbddGGGdde",
"bddddddddbdddddddddddddbdddddddebddddddddbdddddddddddddbddddddde",
"bbbbbbbeeeeeeeeeeeeeeeeeeeeeeeeebbbbbbbeeeeeeeeeeeeeeeeeeeeeeeee"};
