/* XPM */
static char * texture_NO_xpm[] = {
"16 16 6 1",
" 	c #733E39",
".	c #A56742",
"+	c #C29969",
"@	c #3E2731",
"#	c #EAD4AA",
"$	c #D1AF81",
"    .....+++.@  ",
"+####.@      @ .",
"+$++$.@@@@@@@@ .",
"+$++$.@   @@@@ .",
"+++++.@.##$$.@ .",
"++++.. .$+++.@ .",
"...... .$+++.@ .",
"      @......@@@",
"@@@@@@@@@   @@@@",
".. @ ........ .+",
".. @.$#####$. ..",
"@  @.#+++++#. @@",
"...@.$+++++$. ..",
"$$.@.$+++++$. .$",
"$$.@.$+++++$.@.#",
"$$. .+++$###.@.$"};
