/* XPM */
static char * texture_SO_xpm[] = {
"16 16 7 1",
" 	c #BE4A2F",
".	c #CB542C",
"+	c #B1ADA5",
"@	c #B8432F",
"#	c #A3432F",
"$	c #A9A49A",
"%	c #BAB7AF",
" ..+@  @@ .+@   ",
"#  +#    . + .. ",
"@ #+.. @@##+## #",
"$+$$$+%%%+$$$$++",
"$@  @@@@$ @ . . ",
"+# @@@  $ #@@@  ",
"%#@@.  #$ ##  ..",
"%++++++++%%$$+++",
".  $ ..... +@ @@",
"@@ +# @@@ #+@. @",
" ##+.@   ##$@@..",
"+$$$+$$+++$$$+++",
"%..@@@@ +@ .   .",
"+@ @   .+@@@@.. ",
"+#@@@@##+#####  ",
"$++++%%%++++$$++"};
