/* XPM */
static char * texture_EA_xpm[] = {
"64 64 68 1",
" 	c #969492",
".	c #9A9896",
"+	c #9D9B9A",
"@	c #A09E9D",
"#	c #A09E9C",
"$	c #9A9795",
"%	c #969391",
"&	c #A09D9A",
"*	c #A2A09D",
"=	c #9D9B98",
"-	c #A2A09B",
";	c #A7A4A0",
">	c #A5A29D",
",	c #A09D98",
"'	c #9D9A93",
")	c #9D9A94",
"!	c #96938D",
"~	c #B5B1AA",
"{	c #BAB6B0",
"]	c #BCB8B2",
"^	c #BEBAB4",
"/	c #B7B3AB",
"(	c #B9B5AD",
"_	c #B4B0A8",
":	c #BCB8B1",
"<	c #BAB6AF",
"[	c #B8B4AD",
"}	c #B7B4AE",
"|	c #BFBBB6",
"1	c #BBB7B2",
"2	c #C0BCB6",
"3	c #C5C1BB",
"4	c #C3BFB9",
"5	c #C1BDB7",
"6	c #C1BDB6",
"7	c #C2BEB7",
"8	c #C6C2BC",
"9	c #C2BEB8",
"0	c #C4C0BA",
"a	c #C7C3BD",
"b	c #5B6060",
"c	c #939699",
"d	c #727777",
"e	c #505454",
"f	c #44494A",
"g	c #797E7E",
"h	c #6F7373",
"i	c #515657",
"j	c #666A6B",
"k	c #C2200A",
"l	c #411916",
"m	c #240F10",
"n	c #000000",
"o	c #903731",
"p	c #2E1413",
"q	c #5F2223",
"r	c #6F2A2B",
"s	c #121315",
"t	c #150706",
"u	c #1A0807",
"v	c #250A08",
"w	c #561C18",
"x	c #301112",
"y	c #201E1D",
"z	c #A0A2A5",
"A	c #7D8282",
"B	c #4F5353",
"C	c #373A3A",
"  .+@##$%%%%%%%&&&&**=--;>,,-')!  .+@##$%%%%%%%&&&&**=--;>,,-')!",
"~{{{~~{{{]]]]^/(_//:<<~[[[<__}|1~{{{~~{{{]]]]^/(_//:<<~[[[<__}|1",
"22{{{{]3334567338883499{9999{{{{22{{{{]3334567338883499{9999{{{{",
"22208888333aaa34499900800222aaa222208888333aaa34499900800222aaa2",
"2233333aaaaaaaaaaaaaaaaaaaa222222233333aaaaaaaaaaaaaaaaaaaa22222",
"aaaaaaaaaaaaaaaaaaaaaaaaaaaaaaaaaaaaaaaaaaaaaaaaaaaaaaaaaaaaaaaa",
"aaaaaaaaaaaaaaaaaaaaaaaaaaaaaaaaaaaaaaaaaaaaaaaaaaaaaaaaaaaaaaaa",
"bbcddeffffffgfffffffhifffffffffhffifffffffffgfffffffhiffffeddcbb",
"cdbcdegggggggggggggghhhhhhhhhhhhgggggggggggggggggggghhhhhhedcbdc",
"cdbcdeiiigiiiiiiihiiiiiiiiiigiiiiiiiigiiigiiiiiiihiiiiiiiiedcbdc",
"cdbbeeiffgffiiiiihffffiiiiiigiiiiiiiigiffgffiiiiihffffiiiieebbdc",
"cdbdegfffgfffffffhffffffffffgiiiiiiiigfffgfffffffhfffffffffedbdc",
"ebcdehjjjggghhhhhhggggghjjjjggggjjjjhhjjjggghhhhhhggggghjjjedcbe",
"cdbdeiiiiiiihiiiiiiiiihiiiiiiiiiiiiigiiiiiiihiiiiiiiiihiiiiedbdc",
"cdbdeiiiiiiihffffffiiihfffiiiiiiiiffgiiiiiiihffffffiiihfffiedbdc",
"cdeeeiiiiiiihfffffffffhfffffffffffffgiiiiiiihfffffffffhffffeeedc",
"ccbcdegjjjhhhhhhhjjggghhhhhhhhhhhjjggggjjjhhhhhhhjjggghhhhedcbcc",
"ebbcdeiiigiiiiiiijiiiiiiiiihiiiiijiiiiiiigiiiiiiijiiiiiiiiedcbbe",
"cdbcdeiiigiiiifffjffiiiiiffhffiiijffiikkkkkkiifffjffiiiiifedcbdc",
"cdbcdefffgfffffffjfffffffffhffffijfkkkfkkkkkkkfffjffffffffedcbdc",
"cdbddejjjjhhhhhhhjjjjjjgggghhhhhhkkkkkkkjjkkkkkkhjjjjjjgggeddbdc",
"ebdddeiiiiiiiiigiiiiiiiiihiiiiiikkkkkkkkkkiiikkkkkiiiiiiihedddbe",
"cdbdehfiiiiiiffgffiiiiiiihiiiiikkkkkkhfiiiikifkkkkkiiiiiihiedbdc",
"cdbbdefffffffffgfffffffffgffffkkkkkffkkffffffffgkkkkfffffgedbbdc",
"cdbcdegggggggggggggggghhhhhjjkkkkkkhggkggggggggggkkkgghhhhedcbdc",
"cdecdeiiiiihiiiiiiiiiihiiiiiikkkkikhiikiiiihiiiiiikikihiiiedcedc",
"bbccdeiiiffhfffiiiiiifhiiiiikkkkffkhffkiiffhfffiiikkkfhiiiedccbb",
"cdbddefffffhffffffffffhiiiffkkkkfffhffkffffhfffffffkkkhiiieddbdc",
"cdbbehhhhhhhhhhhhhhhhhhhhhhkkkkjhkhhhhkhhhhhhhhhhhhkkkhhhhhebbdc",
"cdbddeiiiiiiiiihiiiiiiiiiiikkkijiiiiigiiiiiikkkkkiikkkiiiieddbdc",
"cdbcdefiiiiiiffhfffiiiiiiiikkkigfiiiigfiiiikkkkkkffkkkiiiiedcbdc",
"eebcdefffffifffhfffffffffffkkkfgffffkkkffffifffhfffkkkffffedcbee",
"cbccdehhhhjggggggggggjjhhhhkkkjgggkkkkkkkhjggggggggkkkjhhhedccbc",
"cdbcdeiiiijiiiiiiiiiiiihfffkkiiiikkkiikkkijiiiiiiiikkkihffedcbdc",
"ccbddeiiifjiiiiiiffffffhfffkkfffkkfffiiikkjiiiiiifkkkkfhffeddbcc",
"ccbbefffffjffffffffffffhfffkkffffkfffffffkkfffffffkkkffhfffebbcc",
"cdbcdehhhhhhhhhlllgggghhhhhhkhhjjkkjjhhhhhkhhhhgggkkkghhhhedcbdc",
"cdbcdeiiiiiigiimmniihiiiiiiikiijiiikkiiiiikigiiiikkkhiiiiiedcbdc",
"cbbcdeiiffffgfmmmonfhiiiiiiikkfjfiiikkiiffkkgffiikikhiiiiiedcbbc",
"bbcddeffffffgpmqrlolhiffffffkkfhffifffkkffkkgfffkfkkhiffffeddcbb",
"cdbcdegggggggmsqrlolhhhhhhhhkkkhgggggggkkgkggggkkkkkhhhhhhedcbdc",
"cdbcdeiiigilttttuvovlliiiiiigkkiiiiiigiikkkiiikkikikiiiiiiedcbdc",
"cdbbeeiffgmmmmmmpvvlllliiiiikkkkiiiiigiffgffikkikkfkffiiiieebbdc",
"cdbdegfffwxxxxqqrooooylfffffkikkkiiiigfffgfkkkfkkkfkfffffffedbdc",
"ebcdehjjjgxxxrqxwwwwwvlhjjjjkgkgjkkkkkkkkkkghkkhkkgkggghjjjedcbe",
"cdbdeiiiiiimtutmllvvvvhiiiiikiikiiikkkkkkkkkkkiikiikiihiiiiedbdc",
"cdbdeiiiiiiitpmttvollihfffiikiiikiffgiiiikikhffkkffiiihfffiedbdc",
"cdeeeiiiiiiitmmmmloolfhfffffkfffkkffgiiiikkihffkkfffffhffffeeedc",
"ccbcdegjjjlmtmtttvvovvlhhhhhhhhhhkkggggjjkhhhhhkkjjggghhhhedcbcc",
"ebbcdeiiinqmtttqqlvovvoniiihiiiiijikikikkkkiiiikkjiiiiiiiiedcbbe",
"cdbcdeiivqqmttqtvovlvvoovffhffiiijffkkkikkkiiifkkjfkiiiiifedcbdc",
"cdbcdeffvqqmttqtvovlvvvovffhffffijffffffkkkffffkkjffffffffedcbdc",
"cdbddejjvnqpttqtvovlvvoovgghhhhhhhhhhhjjkkkhhhhkkjjjjjjgggeddbdc",
"eeeeeebbvbmttttqoovvllleveeeeeeeeeeeekbbkkkbebbbkbbeeeeeeeeeeeee",
"ezzzzzzzvezvtttuvlvvvvzevzzzzzzeezzzzzzzzekzzzzzzzzzzzzezzzzzzze",
"ezzcccccvezvmtttvvvllvvevccccczeezzccccccekzcccccccccczezcccccze",
"bzccccccvevvmmqtqqollcvvvcccccAebzcccccccekcccccccccccceAcccccAe",
"bAccccccvevcvtttttvvvcvvAcccccAebAccccccAezcccccccccccceAcccccAe",
"eAccccccvvvclmmttqqxlcvvAAcccAAeeAccccccAeAccccccccccccbAAcccAAe",
"eAAccccAAeAAlmpttqqxlcAbAAAAAAAeeAAccccAAeAAAAccccccccAbAAAAAAAe",
"bdAAccAAdbddmmpmuooolAAbdAAAAAdebdAAccAAdbddAAAAAAAAAAAbdAAAAAde",
"bddAAAAddbdBttutpqovvvdbddAAAddebddAAAAddbdddAAAAAAAAAdbddAAAdde",
"bddddddddblvttttttvvlllbdddddddebddddddddbdddddddddddddbddddddde",
"bbbbbbbeeClvlvvlllllllleeeeeeeeebbbbbbbeeeeeeeeeeeeeeeeeeeeeeeee"};
