/* XPM */
static char * texture_WE_xpm[] = {
"64 64 48 1",
" 	c #969492",
".	c #9A9896",
"+	c #9D9B9A",
"@	c #A09E9D",
"#	c #A09E9C",
"$	c #9A9795",
"%	c #969391",
"&	c #8E6F31",
"*	c #524C24",
"=	c #A09D9A",
"-	c #A09D98",
";	c #A2A09D",
">	c #9D9B98",
",	c #A5A29D",
"'	c #A2A09B",
")	c #9D9A93",
"!	c #9D9A94",
"~	c #96938D",
"{	c #B5B1AA",
"]	c #BAB6B0",
"^	c #BCB8B2",
"/	c #B7B3AB",
"(	c #B9B5AD",
"_	c #B4B0A8",
":	c #BAB6AF",
"<	c #BCB8B1",
"[	c #B7B4AE",
"}	c #BFBBB6",
"|	c #BBB7B2",
"1	c #C0BCB6",
"2	c #C5C1BB",
"3	c #C3BFB9",
"4	c #C1BDB7",
"5	c #C6C2BC",
"6	c #C2BEB8",
"7	c #C4C0BA",
"8	c #C7C3BD",
"9	c #5B6060",
"0	c #939699",
"a	c #727777",
"b	c #505454",
"c	c #44494A",
"d	c #797E7E",
"e	c #6F7373",
"f	c #515657",
"g	c #666A6B",
"h	c #A0A2A5",
"i	c #7D8282",
"  .+@##$%%%%&&*=&*=******&&-********&******&&&***==;;>***,*-')!~",
"{]]]{{]]]^^^&&/(_**&*****&:_**&&{***{{]]****&&***//<::&***:&_[}|",
"11]]]]^22234&*2&&5&2*66**&66**&&1*&]]]^22********552366&**6*]]]]",
"11175555222&&*2&3666*7*&**1****11*&&555522&&*******677&&**1*8881",
"11222228888&*8&&888888********&11*&&222888&**888****88&**88*1111",
"8888888888&&*8&888888*&&8*****&88*&&88888&&**88***8***&**8888888",
"888888888&&&*8*88888***&*******88*&8888&&&***88&**&&***8&88*8888",
"990aabccc&&&***cccc&**&ccc********&cccc&****dcc&**&*****c&*&&&&&",
"0a90abddd&&**ddddd**&**eeee****&*&&ddd*&****dd&*******&*&eb&&&a0",
"0a90ab***d&*****f**&ff**ffff&******ffd***&fff&&******&*&&fba09a0",
"0a99b*****&*******&&&&**&&&&df******fd**&&&cf&*****cc&f&ff&b99a0",
"0a9a**&&&*&&&&****&c&c*&****df**&*********ccc&&*ceccc&ccc&cba9a0",
"b90a**&gg**&eeee&&&&************&**********de&&*eeddd&deg&gba09b",
"0a9**&ffff*&efff&ff&************&******&****&&**ffff&fef&ffba9a0",
"0a9***ffff*f&cccccc&*&&************&**&&f****c&&cccf&fec&cfba9a0",
"0ab***ffff*&&cccc**&*ce&**************&ff&&*****cccc&cec&ccbbba0",
"00&0**dggge&eeee***&**eee***********&&d&&gee&***egg&dde&&eba0900",
"b9&0**fffdff&****&&&*&ffff*&&*******&&f&fdfff&**&&&fff&&ffba099b",
"0a&0**&ffdff&***&&&&*&fffc*&&****&****fffdfff&**&&ccf&&ffcba09a0",
"0&90**&ccdc*&&&&&gc&*cccc&*&&***&&******cdcc*&**cgccc&ccccba09a0",
"0&9a*&gggg*&&&e**gg&*ggdd&&&&**e**********e*&&*eeggg&ggdddbaa9a0",
"b*aa*&ffff*&&ffd*f&&*fff&ef&***ff****&*****&&**dffff&ffffebaaa9b",
"0**a*&cfff*&&ccd*c&&*f&&fef&&**ff**&********fc&*ccff&ffffefba9a0",
"0***&bcccc*&&ccd**&&*c&&cdc&&**&cc*&***c&***cc&*ccc&cccccdba99a0",
"0**&&bdddddd&&dd*&&**d&eeee&&***ggge********dd&&dd&&ddee&eba09a0",
"**&&abfffffe*&ff&&*f*f&fffff&***fffe&***&&&**f&&f&&fffefff*a0ba0",
"*&&0abfffcce*&c*&&f***efffff&***cccec&**&&&***&*&&fffcefff**&*&9",
"*&9aabccccce*&**&&c*&***ffccc&***ccec&**c&&*cc***cccccefff&aa9a0",
"0&99beeeeeeee&**&ee**e***eeee&**eeeeeee**e&****&**eeeeeeeee&99a0",
"0&9aabfffff&&&**f&f*ff&***fff&**&&fffdf&*ff*******f*&fffffb&a9a0",
"&a90abcff&&&f&**c&cf&&****ffff&**&fffd&&*fff*****ccff***ffb&&9a0",
"bb90abcc&&cfc&**c&ccc&c***ccfc&**cccc&&*cccf&****cccccc**c*a&9bb",
"0900abee&&gddd&*dd&d&&&**&eee**&**ee&&*eeegdd*****dddggee**a&090",
"0a90abff*fgfff&*ff&************&*******f*****&***ffffffec&ba0&a0",
"009aabfff*gf*f&&f&*&***********&*******&*c***&***cccccceccbaa&00",
"*099bcccccgc**&&*&*&**cec*****&**&***&&&cc*&&&****cccccecccb990*",
"*a90abeeee&***&&*&***deeee*******&****eee*&&&&****ddddeeeeba09a&",
"*a90abfffff****&ffffefffff*&************&&&&d&*****fefffffba09a&",
"0*90abffccc****&*&fcefffff**c**********&ccccdc&****cefffffba0990",
"9**aabccccc***&&*cccefccccc**&****f*&&**ccccdc&*****efccccbaa099",
"0a90abdddd&**&*d&dddeeeeeee***&******&**dddddddd****eeeeeeba09a0",
"0a&*abff*&&&&&*ff*ffffffffff*********d&*fdffff&&&***ffffffba09a0",
"0a9*bbfc*&&cf****e*cccffffff***&********cdccff&&*****cffffbb99a0",
"0a9**dcc*&&cc******&cccccccc**&fff**&*&*cdcccc&**e***ccccccba9a0",
"b90abeg**&ddee&&&&**dddeggg***&dg&&*e&**gdddee&**edd**degggba09b",
"0a9a****&&ffef&&&f**ffefff**&&&f&**f*&**&fffe&&*fffff&*ffffba9a0",
"0a9&&&&*&&ffeccccc**ffecc**&&&f&&*cc*&*&ffffe&**cccff&**ccfba9a0",
"0a&&b&fff&ffeccccc**ccec*&&&&&&**ccc&&*fffffe&**cccccc&c**&&*ba&",
"00&0abdgg&&&ee&&&g**ddee*&&e&&&**ggd&**gggee&&*eeggddde*e*ba&&0&",
"b&&0abfffdf**&fffg*&fff*&&f&&&*ffgf*&&*&fdff&&*ffgfffffff&ba0&*&",
"0&90abfffdff**c&&&&&f*&&&ccecc*ffg*&&f&&fdff&&*ccgccfffff&ba09a0",
"&a90abcccdccc**&c**cc*&cccc&ccccf*&&&c&&cdccc&**&gcccccccc*a09a0",
"&a9aabggggeeeeeee*g**&gddd&eeee**&&&ee&&ggeee&**eggggggdddbaa9a0",
"&bbbbb999999b99999&&&&bbbb&bbb&&&&b&b&&99999b&*9999bbbbbbbbbbbbb",
"bhhhhhhhhbhhhhh&&&h&&hhbh&hhhh&&bh&hh&&hhbhhhh&hhhhhhhhbhhhhhhhb",
"bhh000000bhh&&&0000000hbh&0000&bbh&000*00bhh00&0000000hbh00000hb",
"9h0000000bh&00000000000bi&000&ib9h&0&0*&0&h000&00000000bi00000ib",
"9i000000ibh&00000000000b&&0&&0ib9&0000&0i*h**0000000000bi00000ib",
"bi00000*ibi00000000000&&i&*00iibb&&000&0ibi0000000000009ii000iib",
"bii0000iibiiii00000000&9ii&iiiibb&i000&iibiiii00000000i9iiiiiiib",
"9aii00iia9aaiiiiiiiii&i9a&iiiiab9&ii00&ia9aaiiiiiiiiiii9aiiiiiab",
"9aaiiiiaa9aaaiiiiiii&ia9aa**iaab9a&ii&iaa9aaaiiiiiiiiia9aaiiiaab",
"9aaaaaaaa9aaaaaaaaaaaa*9aaaa*aab9aaaa*&aa9aaaaaaaaaaaaa9aaaaaaab",
"9999999bbbbbbbbbbbbbbbbbbbbbbbbb9999&&&bbbbbbbbbbbbbbbbbbbbbbbbb"};
